{"title":"Interstellar.2014.Xvid.Eng.CAMRip.avi","uid":11424919,"size":1474602018,"categoryP":"video","categoryS":"movies","magnet":"?xt=urn:btih:545de0bdc8e948d4ba0da856405a1eca75c5d3f0&amp;dn=Interstellar.2014.Xvid.Eng.CAMRip.avi&amp;tr=udp%3A%2F%2Ftracker.openbittorrent.com%3A80&amp;tr=udp%3A%2F%2Fopen.demonii.com%3A1337&amp;tr=udp%3A%2F%2Ftracker.coppersurfer.tk%3A6969&amp;tr=udp%3A%2F%2Fexodus.desync.com%3A6969","seeders":5,"leechers":9,"uploader":"niif111","files":1,"time":1415648361,"description":"Interstellar.2014.Xvid.Eng.CAMRip.avi\nFormat                                   : AVI\nFormat/Info                              : Audio Video Interleave\nFormat profile                           : OpenDML\nFile size                                : 1.37 GiB\nDuration                                 : 2h 43mn\nOverall bit rate                         : 1 205 Kbps\nWriting application                      : XviD4PSP 6.0 / 54.29.105\n\nVideo\nID                                       : 0\nFormat                                   : MPEG-4 Visual\nFormat profile                           : Advanced Simple@L5\nFormat settings, BVOP                    : 2\nFormat settings, QPel                    : No\nFormat settings, GMC                     : No warppoints\nFormat settings, Matrix                  : Default (MPEG)\nCodec ID                                 : XVID\nCodec ID/Hint                            : XviD\nDuration                                 : 2h 43mn\nBit rate                                 : 1 062 Kbps\nWidth                                    : 720 pixels\nHeight                                   : 288 pixels\nDisplay aspect ratio                     : 2.500\nFrame rate                               : 25.000 fps\nColor space                              : YUV\nChroma subsampling                       : 4:2:0\nBit depth                                : 8 bits\nScan type                                : Progressive\nCompression mode                         : Lossy\nBits/(Pixel*Frame)                       : 0.205\nStream size                              : 1.21 GiB (88%)\nWriting library                          : XviD 1.2.1 (UTC 2008-12-04)\n\nAudio\nID                                       : 1\nFormat                                   : MPEG Audio\nFormat version                           : Version 1\nFormat profile                           : Layer 3\nMode                                     : Joint stereo\nMode extension                           : MS Stereo\nCodec ID                                 : 55\nCodec ID/Hint                            : MP3\nDuration                                 : 2h 43mn\nBit rate mode                            : Constant\nBit rate                                 : 128 Kbps\nChannel(s)                               : 2 channels\nSampling rate                            : 48.0 KHz\nCompression mode                         : Lossy\nStream size                              : 149 MiB (11%)\nAlignment                                : Aligned on interleaves\nInterleave, duration                     : 24 ms (0.60 video frame)\nWriting library                          : LAME3.99.4","torrent":{"xt":"urn:btih:545de0bdc8e948d4ba0da856405a1eca75c5d3f0","amp;dn":"Interstellar.2014.Xvid.Eng.CAMRip.avi","amp;tr":["udp%3A%2F%2Ftracker.openbittorrent.com%3A80","udp%3A%2F%2Fopen.demonii.com%3A1337","udp%3A%2F%2Ftracker.coppersurfer.tk%3A6969","udp%3A%2F%2Fexodus.desync.com%3A6969"],"infoHash":"545de0bdc8e948d4ba0da856405a1eca75c5d3f0","infoHashBuffer":{"type":"Buffer","data":[84,93,224,189,200,233,72,212,186,13,168,86,64,90,30,202,117,197,211,240]},"announce":[],"urlList":[]}}